<svg width="45" height="45" viewBox="0 0 45 45" fill="none" xmlns="http://www.w3.org/2000/svg">
<path d="M16.444 11.5009C16.6301 11.1709 16.7994 10.8662 16.9009 10.7309C18.7286 8.20085 20.7255 6.94008 21.8001 6.2547C22.494 5.8147 22.8747 5.56932 22.9594 5.02778C23.0017 4.73162 22.917 4.43547 22.7224 4.20701C21.157 2.35393 18.3817 0.991624 14.9209 0.365471C11.7478 -0.209914 8.38012 -0.099914 5.68089 0.653163C2.49089 1.54162 0.527812 3.26778 0.155504 5.51008L0.138581 5.56932C-0.199881 7.05009 0.0878115 8.5647 0.933965 9.81701C1.4332 10.5616 2.10166 11.1624 2.88012 11.5685C2.76166 11.7039 2.6432 11.8478 2.5332 11.9832C0.857812 14.0816 0.00319608 16.4001 0.00319608 18.8793C0.00319608 19.4124 0.443196 19.8524 0.976273 19.8524C1.50935 19.8524 1.94935 19.4124 1.94935 18.8793C1.94935 16.9332 2.60935 15.0885 3.90397 13.3878C4.41166 15.1139 5.74858 16.5185 7.46627 17.0685C7.55935 17.1024 7.66089 17.1109 7.76243 17.1109C8.1855 17.1109 8.55781 16.8401 8.6932 16.4339C8.85397 15.9262 8.57474 15.3762 8.05858 15.2155C6.51012 14.7247 5.48627 13.1509 5.6555 11.5347C6.56089 10.7224 7.64397 9.95239 8.86243 9.23316C9.60704 8.79316 10.4024 8.37855 11.2486 7.98085C12.0863 8.17547 13.1947 8.54778 13.7109 8.97931C13.8886 9.12316 14.1086 9.20778 14.337 9.20778C14.6247 9.20778 14.8955 9.08085 15.0817 8.86085C15.2509 8.65778 15.327 8.41239 15.3017 8.15008C15.2763 7.88778 15.1578 7.65932 14.9547 7.49008C14.6924 7.27008 14.354 7.05855 13.9647 6.86393C15.2086 6.41547 16.0378 6.20393 16.0463 6.19547C16.5624 6.06008 16.884 5.53547 16.7486 5.01085C16.6809 4.75701 16.5286 4.54547 16.3001 4.41855C16.0801 4.28316 15.8178 4.24932 15.564 4.30855C15.4117 4.35085 11.7563 5.29008 8.00781 7.4647C8.1855 6.82162 8.46474 6.10239 8.92166 5.49316C9.07397 5.28162 9.14166 5.02778 9.10781 4.77393C9.07397 4.52009 8.93858 4.29162 8.72704 4.13085C8.5155 3.97855 8.26166 3.91085 8.00781 3.9447C7.75397 3.97855 7.5255 4.11393 7.36474 4.32547C6.1632 5.9247 5.86704 7.96393 5.79089 8.91162C5.27474 9.29239 4.79243 9.68162 4.3355 10.0878C3.59935 9.85085 2.98166 9.38547 2.54166 8.72547C1.99166 7.91316 1.81397 6.94855 2.0255 5.99239L2.04243 5.90778C2.05089 5.89085 2.05089 5.86547 2.05089 5.84855C2.36397 3.87701 4.7755 2.92085 6.18012 2.53162C10.4447 1.33855 17.2309 1.98162 20.5055 4.75701C19.3378 5.50162 17.214 6.94008 15.3017 9.58855C15.1409 9.81701 14.9547 10.1385 14.7263 10.5532C13.9647 11.9155 12.5432 14.4624 10.5463 15.1985C10.047 15.3847 9.78474 15.9432 9.97089 16.4509C10.064 16.6962 10.2417 16.8909 10.4786 16.9924C10.7155 17.1024 10.9778 17.1109 11.2232 17.0178C13.9055 16.0362 15.5555 13.0832 16.444 11.5009Z" fill="white"/>
<path d="M32.9784 39.0096C32.7499 38.8827 32.4876 38.8573 32.2422 38.925C29.2384 39.7881 26.023 39.5765 23.1376 38.3242C24.2461 36.9788 25.3037 35.5319 26.2937 34.0004C27.0468 34.2881 28.1976 34.5842 29.7122 34.5842C31.8784 34.5842 34.1714 33.975 36.5407 32.7735C37.023 32.5281 37.2091 31.9442 36.9637 31.4619C36.8453 31.2335 36.6422 31.0558 36.3968 30.9796C36.1514 30.895 35.8891 30.9204 35.6522 31.0388C32.6145 32.5873 30.2537 32.7396 28.8068 32.5873C28.2061 32.5281 27.7153 32.4096 27.343 32.2996C27.9607 31.2588 28.5445 30.1758 29.0861 29.0927C31.3284 24.5912 32.2253 21.1811 32.2676 21.0373C32.403 20.5211 32.0899 19.9881 31.5737 19.8527C31.0576 19.7173 30.5245 20.0304 30.3891 20.5465C30.3891 20.5635 30.0845 21.6973 29.4076 23.4996C28.9845 22.5265 28.5107 21.8581 28.443 21.765C28.1299 21.3335 27.5207 21.2404 27.0807 21.5535C26.6491 21.8665 26.5476 22.4758 26.8691 22.9073C26.8861 22.9242 28.223 24.8112 28.113 26.6135C27.8591 27.1635 27.6053 27.7135 27.3345 28.255C26.3784 30.1673 25.3122 32.0035 24.1445 33.7296C23.5184 32.0965 22.2914 29.8542 19.8376 27.5104C19.6514 27.3327 19.4061 27.2396 19.1437 27.2396C18.8814 27.2481 18.6445 27.3496 18.4584 27.5358C18.2807 27.7219 18.1791 27.9673 18.1876 28.2296C18.1961 28.4919 18.2976 28.7288 18.4837 28.915C21.6314 31.9273 22.4861 34.7365 22.7061 35.7265C22.2661 36.3019 21.8176 36.8689 21.3607 37.4104C19.2791 36.1242 17.5953 34.3135 16.4614 32.1558C14.3376 28.0858 14.4222 23.195 16.6391 19.2011C17.5276 22.0104 19.3807 24.5912 21.9107 26.5458C22.1814 26.7573 22.5453 26.8081 22.8584 26.6812C23.1714 26.5542 23.4084 26.2665 23.4591 25.9365C23.7384 24.2358 24.2545 22.5435 24.9991 20.9019C25.2191 20.4111 24.9991 19.8358 24.5168 19.6158C24.2799 19.5058 24.0176 19.4973 23.7722 19.5904C23.5268 19.6835 23.3322 19.8611 23.2307 20.0981C22.6553 21.3588 22.2068 22.6619 21.8853 23.965C20.0407 22.1881 18.7545 19.9796 18.2468 17.6865C18.1199 17.1111 17.663 16.6711 17.0791 16.5611C16.4953 16.4511 15.9114 16.6965 15.5899 17.1873C12.4337 21.9258 12.1122 28.0012 14.7437 33.0527C15.9791 35.4219 17.8068 37.4273 20.0576 38.8827C18.8984 40.1181 17.6799 41.2604 16.4276 42.2673C16.013 42.6058 15.9453 43.215 16.2837 43.6381C16.4699 43.8665 16.7491 44.0019 17.0453 44.0019C17.2653 44.0019 17.4853 43.9258 17.6545 43.7904C19.093 42.6312 20.4891 41.3112 21.8091 39.8642C23.9076 40.8712 26.2261 41.3958 28.5361 41.3958C29.9745 41.3958 31.3961 41.1927 32.7753 40.795C33.0291 40.7273 33.2322 40.5581 33.3591 40.3296C33.4861 40.1012 33.5114 39.8389 33.4437 39.5935C33.3676 39.3396 33.1984 39.1365 32.9784 39.0096Z" fill="white"/>
<path d="M43.1323 24.735C42.5908 24.4896 41.9646 24.5996 41.5331 24.9973C40.1284 26.2919 38.3515 27.2481 36.3546 27.7727C36.8707 26.9858 37.3107 26.1819 37.6831 25.3696C40.8646 18.3381 37.6154 12.3642 36.0669 10.1219C35.8638 9.82577 35.5169 9.665 35.1531 9.70731C31.3707 10.1389 27.4784 12.965 24.7454 17.2719C24.4577 17.7289 24.593 18.3296 25.0415 18.6173C25.2615 18.7527 25.5238 18.8035 25.7777 18.7442C26.0315 18.685 26.2515 18.5327 26.3869 18.3127C28.6461 14.7589 31.7769 12.3135 34.7977 11.7296C35.5761 12.9565 36.5323 14.8435 36.9131 17.1704C37.3277 19.6919 36.9892 22.1796 35.9146 24.5658C35.2969 25.9281 34.4423 27.2565 33.3677 28.5173C33.1138 28.8219 33.0631 29.245 33.2492 29.6004C33.4354 29.9558 33.8077 30.1589 34.2054 30.125C37.1161 29.8542 39.8577 28.8135 42.0069 27.155C41.5669 31.6481 38.8931 35.6927 34.9077 37.8335C34.4338 38.0873 34.2561 38.6796 34.51 39.1535C34.6792 39.4665 35.0092 39.6696 35.3646 39.6696C35.5254 39.6696 35.6861 39.6273 35.8215 39.5512C40.7715 36.8942 43.9023 31.7412 44.0038 26.1058C44.0123 25.5219 43.6738 24.9804 43.1323 24.735Z" fill="white"/>
<path d="M7.66996 39.6696C7.63611 39.1027 7.60227 38.5104 7.53458 37.9181C7.50919 37.6558 7.38227 37.4273 7.17919 37.2666C6.97612 37.1058 6.72227 37.0296 6.46842 37.055C6.20612 37.0804 5.97765 37.2073 5.81688 37.4104C5.65612 37.6135 5.57996 37.8673 5.60535 38.1212C5.66458 38.6712 5.69842 39.2381 5.73227 39.7881C5.77458 40.4312 5.80842 41.0489 5.87612 41.6412C4.62381 40.9812 3.1515 39.6781 2.41535 38.0196C1.58612 36.1496 2.03458 34.4912 2.55919 33.4335C2.58458 33.3742 2.63535 33.3404 2.68612 33.315C2.74535 33.2981 2.80458 33.2981 2.86381 33.3235C3.84535 33.8142 4.53919 34.5081 4.97919 35.4642C5.19919 35.955 5.78304 36.1666 6.26535 35.9466C6.50227 35.8366 6.67996 35.6419 6.77304 35.405C6.86612 35.1596 6.85765 34.8973 6.74765 34.6604C6.1215 33.2812 5.1315 32.2742 3.72688 31.5804C3.20227 31.3266 2.61842 31.2842 2.06842 31.4704C1.51842 31.6566 1.06996 32.0458 0.816116 32.5704C-0.190807 34.5927 -0.250038 36.8096 0.629962 38.8066C1.84842 41.5566 4.58996 43.5196 6.55304 43.9681C6.64612 43.985 6.73919 44.0019 6.82381 44.0019C7.14535 44.0019 7.44996 43.875 7.68688 43.6381C7.98304 43.3335 8.1015 42.9019 7.9915 42.4873C7.78842 41.6835 7.72919 40.7019 7.66996 39.6696Z" fill="white"/>
<path d="M37.6577 5.80654C38.8423 5.80654 39.9931 5.45962 41.0085 5.14654C41.7108 4.935 42.3793 4.72346 42.9546 4.66423H42.9716C43.3693 4.62193 43.7162 4.37654 43.8854 4.0127C44.0546 3.64885 44.0293 3.23423 43.8093 2.89577C42.9631 1.60962 40.8393 0.162694 38.5546 0.0188482C36.8793 -0.0911518 35.2969 0.551925 34.1208 1.81269C33.4269 2.55731 33.4608 3.73346 34.1969 4.43577C35.1869 5.35808 36.3123 5.80654 37.6577 5.80654ZM35.61 3.07346C36.1262 2.54885 36.9808 1.94808 38.1993 1.94808C38.2839 1.94808 38.36 1.94808 38.4446 1.95654C39.5531 2.02423 40.5685 2.52346 41.2708 3.03962C41 3.11577 40.7293 3.20039 40.4416 3.285C38.5969 3.85193 36.9977 4.33423 35.61 3.07346Z" fill="white"/>
<path d="M12.8993 35.3373C12.8485 34.8042 12.3746 34.415 11.8416 34.4658C11.5793 34.4911 11.3508 34.6181 11.1816 34.8127C11.0123 35.0158 10.9362 35.2696 10.9616 35.5234C10.97 35.6081 11.1646 37.5542 12.6793 39.2127C12.8654 39.4158 13.1277 39.5342 13.3985 39.5342C13.6439 39.5342 13.8723 39.4411 14.05 39.2804C14.4477 38.9165 14.4731 38.2988 14.1177 37.9096C13.0769 36.7588 12.8993 35.3711 12.8993 35.3373Z" fill="white"/>
<path d="M5.6562 23.1189C5.1485 22.9496 4.5985 23.2289 4.42927 23.7365C4.34466 23.9819 4.37004 24.2442 4.48004 24.4812C4.59004 24.7181 4.79312 24.8873 5.04697 24.9719C6.52774 25.4627 7.34851 26.5965 7.35697 26.605C7.53466 26.8673 7.83928 27.0196 8.15235 27.0196C8.34697 27.0196 8.54158 26.9604 8.70235 26.8504C8.91389 26.7065 9.05774 26.4781 9.10851 26.2242C9.15928 25.9704 9.10004 25.7081 8.94774 25.4965C8.90543 25.4289 7.78004 23.8296 5.6562 23.1189Z" fill="white"/>
<path d="M43.0899 7.46501C43.0053 7.45655 41.0507 7.36347 39.1891 8.60732C38.7407 8.90347 38.6222 9.5127 38.9184 9.96116C39.096 10.2319 39.4007 10.3927 39.7307 10.3927C39.9253 10.3927 40.1114 10.3335 40.2722 10.2319C41.5668 9.36039 42.963 9.41116 42.9799 9.41116C43.513 9.43655 43.9699 9.03039 44.0037 8.49732C44.0291 7.95578 43.623 7.49885 43.0899 7.46501Z" fill="white"/>
<path d="M21.9952 12.9058C22.1729 13.2019 22.4945 13.3796 22.8329 13.3796C23.0106 13.3796 23.1798 13.3289 23.3321 13.2442C25.2529 12.1019 26.0144 10.2912 26.0398 10.215C26.2429 9.72425 26.006 9.14886 25.5068 8.94579C25.016 8.74271 24.4406 8.97963 24.2375 9.4704C24.2291 9.48732 23.6706 10.7735 22.3337 11.5689C21.8768 11.8481 21.7245 12.4489 21.9952 12.9058Z" fill="white"/>
</svg>
