<svg width="23" height="21" viewBox="0 0 23 21" fill="none" xmlns="http://www.w3.org/2000/svg">
<path d="M22.2275 4.18185C21.8741 3.36351 21.3645 2.62194 20.7272 1.99865C20.0895 1.3735 19.3376 0.876703 18.5124 0.535272C17.6567 0.179825 16.739 -0.00211408 15.8124 1.85332e-05C14.5125 1.85332e-05 13.2442 0.355975 12.1421 1.02834C11.8784 1.18918 11.6279 1.36584 11.3906 1.55832C11.1533 1.36584 10.9028 1.18918 10.6392 1.02834C9.53701 0.355975 8.26875 1.85332e-05 6.96885 1.85332e-05C6.03281 1.85332e-05 5.12578 0.179315 4.26885 0.535272C3.44092 0.878046 2.69473 1.37111 2.054 1.99865C1.41591 2.62124 0.906182 3.36299 0.553711 4.18185C0.187207 5.03351 0 5.93791 0 6.86867C0 7.7467 0.179297 8.66164 0.535254 9.5924C0.833203 10.3702 1.26035 11.1771 1.80615 11.9918C2.671 13.2812 3.86016 14.6259 5.33672 15.9891C7.78359 18.2487 10.2067 19.8097 10.3096 19.873L10.9345 20.2737C11.2113 20.4504 11.5673 20.4504 11.8441 20.2737L12.469 19.873C12.5719 19.807 14.9924 18.2487 17.4419 15.9891C18.9185 14.6259 20.1076 13.2812 20.9725 11.9918C21.5183 11.1771 21.948 10.3702 22.2434 9.5924C22.5993 8.66164 22.7786 7.7467 22.7786 6.86867C22.7812 5.93791 22.594 5.03351 22.2275 4.18185ZM11.3906 18.1881C11.3906 18.1881 2.00391 12.1737 2.00391 6.86867C2.00391 4.18185 4.22666 2.00392 6.96885 2.00392C8.89629 2.00392 10.568 3.07971 11.3906 4.65119C12.2133 3.07971 13.885 2.00392 15.8124 2.00392C18.5546 2.00392 20.7773 4.18185 20.7773 6.86867C20.7773 12.1737 11.3906 18.1881 11.3906 18.1881Z" fill="#FF9139"/>
</svg>
