<?xml version="1.0" encoding="utf-8"?>
<!-- Generator: Adobe Illustrator 21.0.0, SVG Export Plug-In . SVG Version: 6.00 Build 0)  -->
<svg version="1.1" id="Слой_1" xmlns="http://www.w3.org/2000/svg" xmlns:xlink="http://www.w3.org/1999/xlink" x="0px" y="0px"
	 viewBox="0 0 32 389" style="enable-background:new 0 0 32 389;" xml:space="preserve">
<style type="text/css">
	.st0{fill:none;stroke:#FF9139;stroke-width:2;stroke-linecap:round;stroke-linejoin:round;}
	.st1{fill:none;stroke:#FF9139;stroke-width:2;}
	.st2{fill:none;stroke:#FFFFFF;stroke-width:2;}
	.st3{fill:#FFFFFF;}
	.st4{fill:#F7931E;}
	.st5{fill:#FF9139;}
	.st6{fill:none;stroke:#FFFFFF;stroke-width:2;stroke-linecap:round;stroke-linejoin:round;}
	.st7{fill:#FF8E3A;}
	.st8{fill:none;}
	.st9{fill:#55ad4d;}
</style>
<path class="st0" d="M13.5,8c0,0.8-0.3,1.6-0.9,2.1c-0.6,0.6-1.3,0.9-2.1,0.9c-0.8,0-1.6-0.3-2.1-0.9C7.9,9.6,7.5,8.8,7.5,8
	s0.3-1.6,0.9-2.1C9,5.3,9.7,5,10.5,5c0.8,0,1.6,0.3,2.1,0.9C13.2,6.4,13.5,7.2,13.5,8L13.5,8z"/>
<path class="st0" d="M1,8c1.3-4.1,5.1-7,9.5-7c4.5,0,8.3,2.9,9.5,7c-1.3,4.1-5.1,7-9.5,7C6.1,15,2.3,12.1,1,8L1,8z"/>
<circle class="st1" cx="9.5" cy="22.6" r="3.6"/>
<path class="st1" d="M18,37.3c0-4.7-3.8-8.5-8.5-8.5c-4.7,0-8.5,3.8-8.5,8.5"/>
<circle class="st2" cx="12" cy="45" r="5"/>
<path class="st2" d="M23,64c0-6.1-4.9-11-11-11C5.9,53,1,57.9,1,64"/>
<path class="st3" d="M9,84c1.8,0,3.5-0.6,4.9-1.7l4.4,4.4l1.4-1.4l-4.4-4.4c1.1-1.4,1.7-3.1,1.7-4.9c0-4.4-3.6-8-8-8s-8,3.6-8,8
	S4.6,84,9,84z M9,70c3.3,0,6,2.7,6,6s-2.7,6-6,6s-6-2.7-6-6S5.7,70,9,70z"/>
<path class="st4" d="M9,106c1.8,0,3.5-0.6,4.9-1.7l4.4,4.4l1.4-1.4l-4.4-4.4c1.1-1.4,1.7-3.1,1.7-4.9c0-4.4-3.6-8-8-8s-8,3.6-8,8
	S4.6,106,9,106z M9,92c3.3,0,6,2.7,6,6s-2.7,6-6,6s-6-2.7-6-6S5.7,92,9,92z"/>
<path class="st5" d="M23.2,117.2c-0.4-0.8-0.9-1.6-1.5-2.2s-1.4-1.1-2.2-1.5c-0.8-0.3-1.8-0.5-2.7-0.5c-1.3,0-2.6,0.4-3.7,1
	c-0.3,0.2-0.5,0.3-0.8,0.5c-0.2-0.2-0.5-0.4-0.8-0.5c-1-0.6-2.2-1-3.5-1c-1,0-1.9,0.2-2.7,0.5c-0.9,0.4-1.6,0.9-2.2,1.5
	c-0.7,0.6-1.2,1.4-1.5,2.2C1.2,118,1,118.9,1,119.9c0,0.9,0.2,1.8,0.5,2.7c0.3,0.8,0.7,1.6,1.3,2.4c0.9,1.3,2.1,2.6,3.5,4
	c2.4,2.3,4.9,3.8,5,3.9l0.6,0.4c0.3,0.2,0.6,0.2,0.9,0l0.6-0.4c0.1-0.1,2.5-1.6,5-3.9c1.5-1.4,2.7-2.7,3.5-4c0.5-0.8,1-1.6,1.3-2.4
	c0.4-0.9,0.5-1.8,0.5-2.7C23.8,118.9,23.6,118,23.2,117.2z"/>
<path class="st5" d="M23.2,141.2c-0.4-0.8-0.9-1.6-1.5-2.2c-0.6-0.6-1.4-1.1-2.2-1.5c-0.9-0.4-1.8-0.5-2.7-0.5c-1.3,0-2.6,0.4-3.7,1
	c-0.3,0.2-0.5,0.3-0.8,0.5c-0.2-0.2-0.5-0.4-0.8-0.5c-1.1-0.7-2.4-1-3.7-1c-0.9,0-1.8,0.2-2.7,0.5c-0.8,0.3-1.6,0.8-2.2,1.5
	c-0.6,0.6-1.1,1.4-1.5,2.2C1.2,142,1,142.9,1,143.9c0,0.9,0.2,1.8,0.5,2.7c0.3,0.8,0.7,1.6,1.3,2.4c0.9,1.3,2.1,2.6,3.5,4
	c2.4,2.3,4.9,3.8,5,3.9l0.6,0.4c0.3,0.2,0.6,0.2,0.9,0l0.6-0.4c0.1-0.1,2.5-1.6,5-3.9c1.5-1.4,2.7-2.7,3.5-4c0.5-0.8,1-1.6,1.3-2.4
	c0.4-0.9,0.5-1.8,0.5-2.7C23.8,142.9,23.6,142,23.2,141.2z M12.4,155.2c0,0-9.4-6-9.4-11.3c0-2.7,2.2-4.9,5-4.9
	c1.9,0,3.6,1.1,4.4,2.6c0.8-1.6,2.5-2.6,4.4-2.6c2.7,0,5,2.2,5,4.9C21.8,149.2,12.4,155.2,12.4,155.2z"/>
<path class="st3" d="M23.2,164.5c-0.4-0.8-0.9-1.6-1.5-2.2c-0.6-0.6-1.4-1.1-2.2-1.5c-0.9-0.4-1.8-0.5-2.7-0.5c-1.3,0-2.6,0.4-3.7,1
	c-0.3,0.2-0.5,0.3-0.8,0.5c-0.2-0.2-0.5-0.4-0.8-0.5c-1.1-0.7-2.4-1-3.7-1c-0.9,0-1.8,0.2-2.7,0.5c-0.8,0.3-1.6,0.8-2.2,1.5
	c-0.6,0.6-1.1,1.4-1.5,2.2c-0.4,0.9-0.6,1.8-0.6,2.7c0,0.9,0.2,1.8,0.5,2.7c0.3,0.8,0.7,1.6,1.3,2.4c0.9,1.3,2.1,2.6,3.5,4
	c2.4,2.3,4.9,3.8,5,3.9l0.6,0.4c0.3,0.2,0.6,0.2,0.9,0l0.6-0.4c0.1-0.1,2.5-1.6,5-3.9c1.5-1.4,2.7-2.7,3.5-4c0.5-0.8,1-1.6,1.3-2.4
	c0.4-0.9,0.5-1.8,0.5-2.7C23.8,166.2,23.6,165.3,23.2,164.5z M12.4,178.5c0,0-9.4-6-9.4-11.3c0-2.7,2.2-4.9,5-4.9
	c1.9,0,3.6,1.1,4.4,2.6c0.8-1.6,2.5-2.6,4.4-2.6c2.7,0,5,2.2,5,4.9C21.8,172.5,12.4,178.5,12.4,178.5z"/>
<path class="st6" d="M25,195c0,9.3-12,17.3-12,17.3s-12-8-12-17.3c0-3.2,1.3-6.2,3.5-8.5S9.8,183,13,183s6.2,1.3,8.5,3.5
	C23.7,188.8,25,191.8,25,195z"/>
<path class="st6" d="M13,204c2.2,0,4-1.8,4-4s-1.8-4-4-4s-4,1.8-4,4S10.8,204,13,204z"/>
<path class="st3" d="M17.6,216v2.1c6.3,0,11.4,5.1,11.4,11.4H31C31,222,25,216,17.6,216z M6.9,219.1c-0.5,0-1.1,0.2-1.5,0.5l-0.1,0
	L2.1,223l0.1-0.1c-1.1,0.9-1.4,2.4-0.9,3.6c0.9,2.5,3.1,7.4,7.5,11.7c4.4,4.4,9.3,6.5,11.7,7.5l0,0l0,0c0.6,0.2,1.3,0.2,1.9,0.1
	c0.6-0.1,1.2-0.4,1.7-0.8l0,0l3.2-3.2c0.9-0.9,0.9-2.4,0-3.2l-4.2-4.2c-0.9-0.9-2.4-0.9-3.2,0l-2,2.1c-0.7-0.4-2.5-1.3-4.3-2.9
	c-1.7-1.6-2.6-3.5-2.9-4.2l2.1-2.1c0.9-0.9,1-2.5-0.1-3.3l0.1,0.1l-4.3-4.4l0,0C8,219.3,7.4,219.1,6.9,219.1z M17.6,220.1v2.1
	c4,0,7.2,3.2,7.2,7.2h2.1C26.9,224.3,22.7,220.1,17.6,220.1z M6.9,221.2c0.1,0,0.1,0,0.2,0.1l4.2,4.3l0.1,0c0,0,0,0.1-0.1,0.2
	l-3.1,3.1l0.2,0.6c0,0,1.2,3.2,3.7,5.5c2.5,2.3,5.5,3.6,5.5,3.6l0.6,0.3l3.1-3.1c0.2-0.2,0.1-0.2,0.3,0l4.2,4.2
	c0.2,0.2,0.2,0.1,0,0.3l-3.1,3.1c-0.5,0.4-1,0.5-1.6,0.3c-2.3-0.9-6.9-2.9-11-7c-4.1-4.1-6.2-8.7-7-11l0,0l0,0c-0.2-0.4,0-1,0.3-1.3
	l0,0l3.2-3.3C6.7,221.2,6.8,221.2,6.9,221.2z M17.6,224.3v2.1c1.7,0,3.1,1.4,3.1,3.1h2.1C22.7,226.6,20.4,224.3,17.6,224.3z"/>
<path class="st7" d="M19,256h-5.6l1.1-3.4c0.2-0.6,0.1-1.3-0.3-1.8c-0.4-0.5-1-0.8-1.6-0.8H11c-0.3,0-0.6,0.1-0.8,0.4L5.5,256H3
	c-1.1,0-2,0.9-2,2v9c0,1.1,0.9,2,2,2h13.3c0.4,0,0.8-0.1,1.1-0.4c0.3-0.2,0.6-0.6,0.7-0.9l2.8-7.4c0-0.1,0.1-0.2,0.1-0.4v-2
	C21,256.9,20.1,256,19,256z M3,258h2v9H3V258z M19,259.8l-2.7,7.2H7v-9.6l4.5-5.4h1.1l-1.6,4.7c-0.1,0.2-0.1,0.3,0,0.5
	c0,0.2,0.1,0.3,0.2,0.4c0.1,0.1,0.2,0.2,0.4,0.3c0.1,0.1,0.3,0.1,0.5,0.1h7V259.8z"/>
<path d="M12,274.2L6.5,279L1,274.2l1.4-1.2l4.1,3.6l4.1-3.6L12,274.2z"/>
<path class="st8" d="M2.5,292c-0.8,0-1.5,0.7-1.5,1.5v8c0,0.8,0.7,1.5,1.5,1.5h11c0.8,0,1.5-0.7,1.5-1.5v-8c0-0.8-0.7-1.5-1.5-1.5
	H2.5z M2.5,293h11c0,0,0.1,0,0.1,0L8,296.9L2.5,293C2.4,293,2.5,293,2.5,293z M2,294l6,4.2l6-4.2v7.1l-3.1-2.6L10,299l3.6,3
	c0,0,0,0-0.1,0h-11c0,0,0,0-0.1,0l3.6-3l-0.9-0.6L2,301V294z"/>
<path d="M10.6,287l-4.1-3.6L2.4,287L1,285.8l5.5-4.8l5.5,4.8L10.6,287z"/>
<path class="st3" d="M3.4,317.9l-0.9-0.1L3.4,317.9z M1.9,331l0.9,0.1L1.9,331z M23.9,331l-0.9,0.1L23.9,331z M22.4,317.9l0.9-0.1
	L22.4,317.9z M2.5,317.8L1,330.9l1.9,0.2L4.3,318L2.5,317.8z M3.8,334H22v-1.9H3.8V334z M24.8,330.9l-1.5-13.1l-1.9,0.2l1.5,13.1
	L24.8,330.9L24.8,330.9z M20.6,315.3H5.3v1.9h15.3L20.6,315.3L20.6,315.3z M23.4,317.8c-0.1-0.7-0.4-1.3-0.9-1.8s-1.2-0.7-1.9-0.7
	v1.9c0.2,0,0.5,0.1,0.6,0.2c0.2,0.2,0.3,0.4,0.3,0.6L23.4,317.8L23.4,317.8z M22,334c0.4,0,0.8-0.1,1.1-0.2c0.4-0.2,0.7-0.4,0.9-0.7
	c0.3-0.3,0.5-0.6,0.6-1c0.1-0.4,0.2-0.8,0.1-1.2l-1.9,0.2c0,0.1,0,0.3,0,0.4c0,0.1-0.1,0.2-0.2,0.3c-0.1,0.1-0.2,0.2-0.3,0.2
	c-0.1,0.1-0.2,0.1-0.4,0.1V334z M1,330.9c0,0.4,0,0.8,0.1,1.2c0.1,0.4,0.3,0.7,0.6,1c0.3,0.3,0.6,0.5,0.9,0.7
	c0.4,0.2,0.7,0.2,1.1,0.2v-1.9c-0.1,0-0.3,0-0.4-0.1c-0.1-0.1-0.2-0.1-0.3-0.2c-0.1-0.1-0.2-0.2-0.2-0.3c0-0.1-0.1-0.3,0-0.4
	L1,330.9L1,330.9z M4.3,318c0-0.2,0.1-0.4,0.3-0.6c0.2-0.2,0.4-0.2,0.6-0.2v-1.9c-0.7,0-1.4,0.3-1.9,0.7c-0.5,0.5-0.8,1.1-0.9,1.8
	L4.3,318z M8.2,313.5v-0.9H6.4v0.9H8.2z M17.6,312.5v0.9h1.9v-0.9H17.6z M12.9,307.9c1.2,0,2.4,0.5,3.3,1.4c0.9,0.9,1.4,2.1,1.4,3.3
	h1.9c0-1.7-0.7-3.4-1.9-4.6c-1.2-1.2-2.9-1.9-4.6-1.9V307.9z M8.2,312.5c0-1.2,0.5-2.4,1.4-3.3c0.9-0.9,2.1-1.4,3.3-1.4V306
	c-1.7,0-3.4,0.7-4.6,1.9s-1.9,2.9-1.9,4.6H8.2z"/>
<path class="st9" d="M3.4,349.9l-0.9-0.1L3.4,349.9z M1.9,363l0.9,0.1L1.9,363z M23.9,363l-0.9,0.1L23.9,363z M22.4,349.9l0.9-0.1
	L22.4,349.9z M2.5,349.8L1,362.9l1.9,0.2L4.3,350L2.5,349.8z M3.8,366H22v-1.9H3.8V366z M24.8,362.9l-1.5-13.1l-1.9,0.2l1.5,13.1
	L24.8,362.9L24.8,362.9z M20.6,347.3H5.3v1.9h15.3L20.6,347.3L20.6,347.3z M23.4,349.8c-0.1-0.7-0.4-1.3-0.9-1.8s-1.2-0.7-1.9-0.7
	v1.9c0.2,0,0.5,0.1,0.6,0.2c0.2,0.2,0.3,0.4,0.3,0.6L23.4,349.8L23.4,349.8z M22,366c0.4,0,0.8-0.1,1.1-0.2c0.4-0.2,0.7-0.4,0.9-0.7
	c0.3-0.3,0.5-0.6,0.6-1c0.1-0.4,0.2-0.8,0.1-1.2l-1.9,0.2c0,0.1,0,0.3,0,0.4c0,0.1-0.1,0.2-0.2,0.3c-0.1,0.1-0.2,0.2-0.3,0.2
	c-0.1,0.1-0.2,0.1-0.4,0.1V366z M1,362.9c0,0.4,0,0.8,0.1,1.2c0.1,0.4,0.3,0.7,0.6,1c0.3,0.3,0.6,0.5,0.9,0.7
	c0.4,0.2,0.7,0.2,1.1,0.2v-1.9c-0.1,0-0.3,0-0.4-0.1c-0.1-0.1-0.2-0.1-0.3-0.2c-0.1-0.1-0.2-0.2-0.2-0.3c0-0.1-0.1-0.3,0-0.4
	L1,362.9L1,362.9z M4.3,350c0-0.2,0.1-0.4,0.3-0.6c0.2-0.2,0.4-0.2,0.6-0.2v-1.9c-0.7,0-1.4,0.3-1.9,0.7c-0.5,0.5-0.8,1.1-0.9,1.8
	L4.3,350z M8.2,345.5v-0.9H6.4v0.9H8.2z M17.6,344.5v0.9h1.9v-0.9H17.6z M12.9,339.9c1.2,0,2.4,0.5,3.3,1.4c0.9,0.9,1.4,2.1,1.4,3.3
	h1.9c0-1.7-0.7-3.4-1.9-4.6c-1.2-1.2-2.9-1.9-4.6-1.9V339.9z M8.2,344.5c0-1.2,0.5-2.4,1.4-3.3c0.9-0.9,2.1-1.4,3.3-1.4V338
	c-1.7,0-3.4,0.7-4.6,1.9s-1.9,2.9-1.9,4.6H8.2z"/>
<path d="M22,380v-2c0-0.1,0-0.2-0.1-0.4l-2.8-7.4c-0.1-0.4-0.4-0.7-0.7-0.9c-0.3-0.2-0.7-0.4-1.1-0.4H4c-1.1,0-2,0.9-2,2v9
	c0,1.1,0.9,2,2,2h2.5l4.7,5.6c0.2,0.2,0.5,0.4,0.8,0.4h1.6c0.6,0,1.2-0.3,1.6-0.8c0.4-0.5,0.5-1.2,0.3-1.8l-1.1-3.4H20
	C21.1,382,22,381.1,22,380z M4,371h2v9H4V371z M20,380h-7c-0.2,0-0.3,0-0.5,0.1c-0.1,0.1-0.3,0.2-0.4,0.3c-0.1,0.1-0.2,0.3-0.2,0.4
	c0,0.2,0,0.3,0,0.5l1.6,4.7h-1.1L8,380.6V371h9.3l2.7,7.2V380z"/>
</svg>
