<svg width="24" height="16" viewBox="0 0 24 16" fill="none" xmlns="http://www.w3.org/2000/svg">
<path d="M20.1608 1.92026H15.6202V0H0V12.8316H2.25668V12.8319C2.25668 14.5793 3.70554 16 5.48611 16C7.26668 16 8.71554 14.5784 8.71554 12.8319V12.8316H13.7807H15.5806V12.8319C15.5806 14.5793 17.0295 16 18.8097 16C20.5906 16 22.0395 14.5784 22.0395 12.8319V12.8316H24V8.42902L20.1608 1.92026ZM5.48611 14.1955C4.71968 14.1955 4.09611 13.5838 4.09611 12.8319C4.09611 12.0801 4.71968 11.4684 5.48611 11.4684C6.25254 11.4684 6.87611 12.0801 6.87611 12.8319C6.87611 13.5838 6.25254 14.1955 5.48611 14.1955ZM13.7807 11.0272H8.13673C7.55271 10.2049 6.58302 9.66388 5.48611 9.66388C4.38919 9.66388 3.4192 10.2049 2.83549 11.0272H1.83943V1.80448H13.781V1.92026L13.7807 11.0272ZM18.8097 14.1955C18.0433 14.1955 17.42 13.5838 17.42 12.8319C17.42 12.0801 18.0433 11.4684 18.8097 11.4684C19.5762 11.4684 20.2 12.0801 20.2 12.8319C20.2 13.5838 19.5762 14.1955 18.8097 14.1955ZM22.1606 11.0272H21.461C20.8776 10.2049 19.9076 9.66388 18.8103 9.66388C17.7128 9.66388 16.7434 10.2049 16.1597 11.0272H15.6205V3.72474H19.0994L22.1606 8.91352V11.0272Z" fill="#FF9139"/>
</svg>
