<svg width="20" height="20" viewBox="0 0 20 20" fill="none" xmlns="http://www.w3.org/2000/svg">
<path d="M18.9952 4.9031C18.9791 4.73477 18.9204 4.57329 18.8247 4.43387C18.729 4.29445 18.5994 4.18165 18.4482 4.1061L10.4752 0.106098C10.3365 0.0360393 10.1833 -0.000626822 10.0279 -0.000974073C9.8725 -0.00132132 9.71918 0.0346601 9.58016 0.104098L1.55316 4.1041C1.25616 4.2541 1.05116 4.5411 1.00916 4.8711C0.996158 4.9681 -0.135841 14.6121 9.55016 19.8791C9.69905 19.9603 9.86623 20.0021 10.0358 20.0005C10.2054 19.999 10.3718 19.9541 10.5192 19.8701C19.8262 14.6111 19.0332 5.2971 18.9952 4.9031ZM10.0182 17.8471C3.15816 13.8371 2.87816 7.4951 2.95516 5.6421L10.0262 2.1191L17.0242 5.6301C17.0292 7.5001 16.5432 13.8731 10.0182 17.8471Z" fill="#FF9139"/>
</svg>
