<svg width="18" height="18" viewBox="0 0 18 18" fill="none" xmlns="http://www.w3.org/2000/svg">
<path d="M16.3981 2.05669L16.3656 1.68323L15.9981 1.60971C15.4492 1.49993 14.8079 1.49997 14.2301 1.5L14.2 1.5C11.3654 1.5 7.17466 2.10062 4.52595 5.16813C2.30071 7.60928 1.39806 11.3662 1.60047 16.0217L1.62127 16.5H2.1H3.4C8.0811 16.5 11.6555 15.177 13.7863 12.5175C16.6215 9.15258 16.5995 4.37207 16.3981 2.05669ZM16.6767 0.646293C16.9183 0.67587 17.117 0.705348 17.2671 0.729774C17.2841 0.837743 17.3036 0.970494 17.324 1.12557C17.3857 1.59642 17.4548 2.27175 17.4831 3.08303C17.5398 4.70943 17.4315 6.86281 16.7839 9.00533C16.1375 11.144 14.9591 13.2561 12.8831 14.8365C10.8086 16.4158 7.7908 17.5 3.4 17.5C2.54854 17.5 1.61801 17.4254 0.658046 17.3394C-0.0159787 9.86211 2.05866 5.70777 4.85586 3.39805C7.73582 1.01999 11.4946 0.5 14.2 0.5C15.2265 0.5 16.081 0.573347 16.6767 0.646293Z" fill="#FF9139" stroke="#FF9139"/>
</svg>
