<svg width="19" height="18" viewBox="0 0 19 18" fill="none" xmlns="http://www.w3.org/2000/svg">
<path d="M11.6452 10.8H17.1613V18H19V9.9C19.0025 9.02036 18.8266 8.14898 18.4825 7.33636C18.1385 6.52374 17.6332 5.78604 16.9958 5.166L16.5484 4.728V2.1C16.5484 1.54305 16.3224 1.0089 15.9201 0.615076C15.5178 0.221249 14.9721 0 14.4032 0H4.59679C4.02786 0 3.48223 0.221249 3.07993 0.615076C2.67764 1.0089 2.45163 1.54305 2.45163 2.1V4.728L2.00421 5.166C1.36683 5.78604 0.861483 6.52374 0.517452 7.33636C0.173421 8.14898 -0.0024517 9.02036 2.58153e-05 9.9V18H11.6452V10.8ZM4.29034 2.1C4.29034 2.02044 4.32262 1.94413 4.38009 1.88787C4.43756 1.83161 4.51551 1.8 4.59679 1.8H14.4032C14.4845 1.8 14.5624 1.83161 14.6199 1.88787C14.6774 1.94413 14.7097 2.02044 14.7097 2.1V4.2H4.29034V2.1ZM9.80645 15.9H1.83873V10.8H9.80645V15.9ZM1.92147 9C2.10452 8.02866 2.58556 7.13497 3.3005 6.438L3.75098 6H15.249L15.6964 6.438C16.4125 7.13458 16.8946 8.0283 17.0785 9H1.92147Z" fill="#FF9139"/>
</svg>
